# xmcd
#
# Track frame offsets:
#	150
#	11202
#	23371
#	37882
#	53735
#	66713
#	78473
#	93879
#	114237
#	129184
#	143501
#	158470
#	170933
#	186945
#	200135
#	214083
#	226741
#	240205
#	252333
#
# Disc length: 3563 seconds
# Revision: 3
# Processed by: cddbd v1.5.2PL0 Copyright (c) Steve Scherf et al.
# Submitted via: dBpowerAMP V12.0
#
DISCID=f20de913
DTITLE=Various Artist - Desperate Man Blues: Discovering the Roots of American Music
DYEAR=1951
DGENRE=Blues
TTITLE0=Jimmy Murphy - We Live a Long Time to Get Old
TTITLE1=Robert Johnson - Cross Road Blues
TTITLE2=Joe Hill Louis - When I'm Gone
TTITLE3=Lonnie Johnson - Death Valley Is Just Half Way to My Home
TTITLE4=Uncle Dave Macon - Whoop 'Em Up, Cindy
TTITLE5=Blind Willie McTell - Statesboro Blues
TTITLE6=Charley Patton - It Won't Be Long
TTITLE7=Son House - Death Letter Blues
TTITLE8=Lane Hardin - Hard Time Blues
TTITLE9=Hoyt Ming and His Pep Steppers - Indian War Whoop
TTITLE10=Gitfiddle Jim - Paddlin' Madeline Blues
TTITLE11=Tennessee Mess Arounders - Mandolin Blues
TTITLE12=Clarence Ashley - The Coo-Coo Bird
TTITLE13=Carter Family, The - John Hardy Was a Desperate Little Man
TTITLE14=Stripling Brothers, The - The Lost Child
TTITLE15=Billy Banks - Bugle Call Rag
TTITLE16=Uncle Bunt Stephens - Sail Away Lady
TTITLE17=Papa Harvey Hull - Original Stack O' Lee Blues
TTITLE18=Blind Willie Johnson - Dark Was the Night - Cold Was the Ground
EXTD=
EXTT0=
EXTT1=
EXTT2=
EXTT3=
EXTT4=
EXTT5=
EXTT6=
EXTT7=
EXTT8=
EXTT9=
EXTT10=
EXTT11=
EXTT12=
EXTT13=
EXTT14=
EXTT15=
EXTT16=
EXTT17=
EXTT18=
PLAYORDER=
